<svg width="164" height="164" viewBox="0 0 164 164" fill="none" xmlns="http://www.w3.org/2000/svg">
<path d="M164 82C164 127.287 127.287 164 82 164C36.7127 164 0 127.287 0 82C0 36.7127 36.7127 0 82 0C127.287 0 164 36.7127 164 82Z" fill="#252525"/>
<path d="M79.1741 18H111V105.988C110.957 114.232 108.891 121.44 104.804 127.613C100.717 133.744 95.0653 138.508 87.848 141.905C80.6741 145.302 72.3699 147 62.9351 147C54.5874 147 47.0005 145.612 40.1744 142.837C33.3919 140.061 27.9789 135.753 23.9354 129.912C19.9355 124.071 17.9572 116.593 18.0007 107.48H50.1526C50.2831 110.752 50.9352 113.549 52.1091 115.868C53.3265 118.147 55.0004 119.866 57.1308 121.026C59.2613 122.186 61.8047 122.766 64.7612 122.766C67.8482 122.766 70.4568 122.145 72.5872 120.902C74.7177 119.618 76.3264 117.733 77.4133 115.247C78.5437 112.762 79.1307 109.675 79.1741 105.988V18Z" fill="#9B6CFF"/>
</svg>
